<?xml version="1.0" encoding="UTF-8" standalone="no"?>
<!-- Created with Inkscape (http://www.inkscape.org/) -->

<svg
   xmlns:dc="http://purl.org/dc/elements/1.1/"
   xmlns:cc="http://creativecommons.org/ns#"
   xmlns:rdf="http://www.w3.org/1999/02/22-rdf-syntax-ns#"
   xmlns:svg="http://www.w3.org/2000/svg"
   xmlns="http://www.w3.org/2000/svg"
   xmlns:xlink="http://www.w3.org/1999/xlink"
   xmlns:sodipodi="http://sodipodi.sourceforge.net/DTD/sodipodi-0.dtd"
   xmlns:inkscape="http://www.inkscape.org/namespaces/inkscape"
   id="svg2"
   version="1.1"
   inkscape:version="0.48.3.1 r9886"
   width="208.3925"
   height="208.39125"
   xml:space="preserve"
   sodipodi:docname="New document 1"><metadata
     id="metadata8"><rdf:RDF><cc:Work
         rdf:about=""><dc:format>image/svg+xml</dc:format><dc:type
           rdf:resource="http://purl.org/dc/dcmitype/StillImage" /><dc:title></dc:title></cc:Work></rdf:RDF></metadata><defs
     id="defs6"><clipPath
       clipPathUnits="userSpaceOnUse"
       id="clipPath16"><path
         d="M 0,210 210,210 210,0 0,0 0,210 z"
         id="path18"
         inkscape:connector-curvature="0" /></clipPath><clipPath
       clipPathUnits="userSpaceOnUse"
       id="clipPath24"><path
         d="m 189.172,51.313 c 0,-8.284 -6.715,-15 -15,-15 l -136.714,0 c -8.284,0 -15,6.716 -15,15 l 0,136.713 c 0,8.284 6.716,15 15,15 l 136.714,0 c 8.285,0 15,-6.716 15,-15 l 0,-136.713 z"
         id="path26"
         inkscape:connector-curvature="0" /></clipPath><radialGradient
       fx="0"
       fy="0"
       cx="0"
       cy="0"
       r="1"
       gradientUnits="userSpaceOnUse"
       gradientTransform="matrix(190.02327,0,0,-190.02327,54.180664,177.81396)"
       spreadMethod="pad"
       id="radialGradient32"><stop
         style="stop-opacity:1;stop-color:#91d4f2"
         offset="0"
         id="stop34" /><stop
         style="stop-opacity:1;stop-color:#00a0c6"
         offset="0.522472"
         id="stop36" /><stop
         style="stop-opacity:1;stop-color:#00a0c6"
         offset="0.522472"
         id="stop38" /><stop
         style="stop-opacity:1;stop-color:#0e5fa7"
         offset="1"
         id="stop40" /></radialGradient><radialGradient
       inkscape:collect="always"
       xlink:href="#radialGradient32"
       id="radialGradient3061"
       gradientUnits="userSpaceOnUse"
       gradientTransform="matrix(190.02327,0,0,-190.02327,54.180664,177.81396)"
       spreadMethod="pad"
       cx="0"
       cy="0"
       fx="0"
       fy="0"
       r="1" /><radialGradient
       inkscape:collect="always"
       xlink:href="#radialGradient32"
       id="radialGradient3090"
       gradientUnits="userSpaceOnUse"
       gradientTransform="matrix(190.02327,0,0,-190.02327,54.180664,177.81396)"
       spreadMethod="pad"
       cx="0"
       cy="0"
       fx="0"
       fy="0"
       r="1" /></defs><sodipodi:namedview
     pagecolor="#ffffff"
     bordercolor="#666666"
     borderopacity="1"
     objecttolerance="10"
     gridtolerance="10"
     guidetolerance="10"
     inkscape:pageopacity="0"
     inkscape:pageshadow="2"
     inkscape:window-width="1600"
     inkscape:window-height="1176"
     id="namedview4"
     showgrid="false"
     fit-margin-top="0"
     fit-margin-left="0"
     fit-margin-right="0"
     fit-margin-bottom="0"
     inkscape:zoom="0.89904762"
     inkscape:cx="112.07581"
     inkscape:cy="95.869348"
     inkscape:window-x="0"
     inkscape:window-y="24"
     inkscape:window-maximized="1"
     inkscape:current-layer="g10" /><g
     id="g10"
     inkscape:groupmode="layer"
     inkscape:label="logo"
     transform="matrix(1.25,0,0,-1.25,-19.174191,243.7719)"><g
       id="g3080"
       transform="translate(-7.1186471,-8.0084781)"><g
         id="g20"><g
           clip-path="url(#clipPath24)"
           id="g22"><g
             id="g28"><g
               id="g30"><path
                 inkscape:connector-curvature="0"
                 id="path42"
                 style="fill:url(#radialGradient3090);stroke:none"
                 d="m 189.172,51.313 c 0,-8.284 -6.715,-15 -15,-15 l -136.714,0 c -8.284,0 -15,6.716 -15,15 l 0,136.713 c 0,8.284 6.716,15 15,15 l 136.714,0 c 8.285,0 15,-6.716 15,-15 l 0,-136.713 z" /></g></g></g></g><path
         inkscape:connector-curvature="0"
         id="path66"
         style="fill:#ffffff;fill-opacity:1;fill-rule:nonzero;stroke:none"
         d="m 163.01,134.335 c -1.576,3.368 -3.801,5.526 -6.676,6.477 -3.057,1.012 -6.133,1.055 -9.229,0.133 -3.097,-0.918 -7.814,-3.723 -14.152,-8.411 -3.197,-2.433 -6.455,-4.449 -9.777,-6.044 -1.039,-0.498 -2.225,-0.998 -3.526,-1.497 -1.2,3.069 -3.386,5.635 -6.175,7.318 2.293,4.316 5.312,8.683 9.068,13.097 6.025,7.088 9.424,11.798 10.199,14.137 1.25,3.777 1.125,7.013 -0.371,9.703 -1.494,2.687 -4.211,4.687 -8.156,5.993 -3.672,1.216 -6.959,1.129 -9.852,-0.257 -2.895,-1.387 -4.925,-3.836 -6.085,-7.341 -0.863,-2.61 -1,-8.652 -0.406,-18.128 0.344,-5.519 0.195,-10.562 -0.418,-15.155 -0.539,0.059 -1.084,0.095 -1.639,0.095 -2.83,0 -5.466,-0.806 -7.718,-2.18 -0.379,0.586 -0.768,1.168 -1.122,1.766 -2.176,3.664 -3.974,7.726 -5.386,12.187 -0.302,0.897 -0.706,2.227 -1.219,3.994 -2.863,9.429 -6.808,14.977 -11.843,16.643 -3.235,1.07 -6.436,0.731 -9.608,-1.013 -3.17,-1.745 -5.287,-4.235 -6.358,-7.472 -1.253,-3.779 -0.912,-7.336 1.028,-10.668 1.938,-3.337 5.258,-6.033 9.963,-8.087 0.867,-0.389 2.08,-0.94 3.642,-1.657 6.744,-2.939 12.303,-6.119 16.696,-9.535 -1.836,-2.472 -2.936,-5.523 -2.936,-8.84 0,-0.259 0.025,-0.511 0.039,-0.767 -0.649,-0.028 -1.305,-0.043 -1.974,-0.038 -4.625,0.032 -10.115,0.85 -16.466,2.456 -7.191,1.78 -12.742,2.093 -16.662,0.948 -3.919,-1.148 -6.579,-3.837 -7.978,-8.062 -1.131,-3.416 -0.93,-6.724 0.603,-9.929 1.532,-3.199 3.914,-5.334 7.15,-6.406 2.784,-0.922 5.706,-0.914 8.758,0.019 3.05,0.934 7.776,3.69 14.175,8.26 0.116,0.058 0.385,0.269 0.805,0.628 3.839,2.904 8.085,5.264 12.718,7.109 1.258,-2.976 3.465,-5.443 6.232,-7.056 C 96.028,102.25 92.909,97.76 88.96,93.287 82.995,86.531 79.597,81.891 78.763,79.373 c -1.222,-3.687 -1.063,-6.957 0.48,-9.81 1.541,-2.86 4.284,-4.936 8.229,-6.243 3.76,-1.246 7.09,-1.099 9.983,0.438 2.894,1.535 4.97,4.191 6.22,7.969 0.715,2.158 0.707,7.849 -0.018,17.07 -0.457,5.805 -0.312,11.15 0.426,16.044 0.569,-0.066 1.146,-0.109 1.732,-0.109 2.745,0 5.306,0.758 7.512,2.055 0.377,-0.573 0.762,-1.141 1.111,-1.729 2.12,-3.544 3.974,-7.724 5.57,-12.544 0.18,-0.659 0.435,-1.541 0.769,-2.649 3.162,-10.328 7.08,-16.263 11.754,-17.81 3.051,-1.008 6.323,-0.696 9.805,0.945 3.484,1.639 5.734,3.988 6.744,7.047 1.281,3.867 0.945,7.521 -1.006,10.961 -1.955,3.439 -5.236,6.172 -9.849,8.199 -0.871,0.387 -2.221,0.982 -4.045,1.789 -6.698,2.705 -12.281,5.82 -16.755,9.334 2.03,2.542 3.251,5.757 3.251,9.263 0,0.024 -0.002,0.047 -0.002,0.071 0.898,0.056 1.808,0.091 2.736,0.087 4.729,-0.019 12.037,-1.213 21.922,-3.585 3.981,-0.922 7.781,-0.583 11.402,1.011 3.621,1.596 5.983,4.061 7.082,7.389 1.043,3.146 0.772,6.402 -0.806,9.769" /></g></g></svg>